HIERARCHY
ROOT Hips
{
	OFFSET -0.001795 -0.223333 0.028219
	CHANNELS 6 Xposition Yposition Zposition Zrotation Yrotation Xrotation 
	JOINT LeftUpLeg
	{
		OFFSET 0.069520 -0.091406 -0.006815
		CHANNELS 3 Zrotation Yrotation Xrotation
		JOINT LeftLeg
		{
			OFFSET 0.034277 -0.375199 -0.004496
			CHANNELS 3 Zrotation Yrotation Xrotation
			JOINT LeftFoot
			{
				OFFSET -0.013596 -0.397961 -0.043693
				CHANNELS 3 Zrotation Yrotation Xrotation
				JOINT LeftToe
				{
					OFFSET 0.026358 -0.055791 0.119288
					CHANNELS 3 Zrotation Yrotation Xrotation
					End Site
					{
						OFFSET 0.000000 0.000000 0.000000
					}
				}
			}
		}
	}
	JOINT RightUpLeg
	{
		OFFSET -0.067670 -0.090522 -0.004320
		CHANNELS 3 Zrotation Yrotation Xrotation
		JOINT RightLeg
		{
			OFFSET -0.038290 -0.382569 -0.008850
			CHANNELS 3 Zrotation Yrotation Xrotation
			JOINT RightFoot
			{
				OFFSET 0.015774 -0.398415 -0.042312
				CHANNELS 3 Zrotation Yrotation Xrotation
				JOINT RightToe
				{
					OFFSET -0.025372 -0.048144 0.123348
					CHANNELS 3 Zrotation Yrotation Xrotation
					End Site
					{
						OFFSET 0.000000 0.000000 0.000000
					}
				}
			}
		}
	}
	JOINT Spine
	{
		OFFSET -0.002533 0.108963 -0.026696
		CHANNELS 3 Zrotation Yrotation Xrotation
		JOINT Spine1
		{
			OFFSET 0.005487 0.135180 0.001092
			CHANNELS 3 Zrotation Yrotation Xrotation
			JOINT Spine2
			{
				OFFSET 0.001457 0.052922 0.025425
				CHANNELS 3 Zrotation Yrotation Xrotation
				JOINT Neck
				{
					OFFSET -0.002778 0.213870 -0.042857
					CHANNELS 3 Zrotation Yrotation Xrotation
					JOINT Head
					{
						OFFSET 0.005152 0.064970 0.051349
						CHANNELS 3 Zrotation Yrotation Xrotation
						End Site
						{
							OFFSET 0.000000 0.000000 0.000000
						}
					}
				}
				JOINT LeftShoulder
				{
					OFFSET 0.078845 0.121749 -0.034090
					CHANNELS 3 Zrotation Yrotation Xrotation
					JOINT LeftArm
					{
						OFFSET 0.090977 0.030469 -0.008868
						CHANNELS 3 Zrotation Yrotation Xrotation
						JOINT LeftForeArm
						{
							OFFSET 0.259612 -0.012772 -0.027456
							CHANNELS 3 Zrotation Yrotation Xrotation
							JOINT LeftHand
							{
								OFFSET 0.249234 0.008986 -0.001171
								CHANNELS 3 Zrotation Yrotation Xrotation
								End Site
								{
									OFFSET 0.000000 0.000000 0.000000
								}
							}
						}
					}
				}
				JOINT RightShoulder
				{
					OFFSET -0.081759 0.118833 -0.038615
					CHANNELS 3 Zrotation Yrotation Xrotation
					JOINT RightArm
					{
						OFFSET -0.096012 0.032551 -0.009143
						CHANNELS 3 Zrotation Yrotation Xrotation
						JOINT RightForeArm
						{
							OFFSET -0.253742 -0.013329 -0.021401
							CHANNELS 3 Zrotation Yrotation Xrotation
							JOINT RightHand
							{
								OFFSET -0.255298 0.007772 -0.005559
								CHANNELS 3 Zrotation Yrotation Xrotation
								End Site
								{
									OFFSET 0.000000 0.000000 0.000000
								}
							}
						}
					}
				}
			}
		}
	}
}
MOTION
Frames: 10
Frame Time: 0.050000
-0.083821 0.903498 0.214762 0.804119 -3.104015 3.698255 8.970670 -0.281885 -20.461989 -7.000645 1.432207 17.138821 6.068074 13.347462 5.077469 0.000000 0.000000 0.000000 -11.824620 0.504918 -20.954463 7.575079 -1.134039 18.157651 -6.455638 -16.889681 7.032283 0.000000 0.000000 0.000000 4.614161 -3.085463 41.401530 -5.255315 1.783378 -25.216081 -5.607744 7.943488 23.505398 16.644801 -2.053666 -48.712184 0.000000 0.000000 0.000000 -6.081645 -29.921948 10.981946 -39.216397 -41.891530 6.982226 70.528050 -69.293872 -48.799044 0.000000 0.000000 0.000000 16.518602 14.913324 8.391803 53.119071 51.974057 18.289576 -43.404559 61.259246 -19.916014 0.000000 0.000000 0.000000 
-0.083929 0.903439 0.214661 0.629560 -3.274248 3.775990 9.065402 -0.257322 -20.473731 -6.975935 1.437570 17.204628 6.082068 13.354059 4.973450 0.000000 0.000000 0.000000 -11.674230 0.540229 -21.071642 7.621422 -1.138939 18.294594 -6.511408 -17.025771 7.149712 0.000000 0.000000 0.000000 4.640871 -3.077169 41.472453 -5.134842 1.755014 -25.110140 -5.737253 7.512010 23.429344 16.673705 -2.173088 -48.314714 0.000000 0.000000 0.000000 -5.677625 -29.810378 10.930563 -39.119486 -42.449667 7.175971 69.659491 -67.993299 -46.888926 0.000000 0.000000 0.000000 16.912035 15.158095 8.472160 53.580584 51.723209 18.320038 -42.287291 62.410180 -19.811473 0.000000 0.000000 0.000000 
-0.084175 0.903405 0.214547 0.532136 -3.466275 3.938863 9.182955 -0.229474 -20.612928 -7.056216 1.469595 17.186023 6.215500 13.598484 5.041208 0.000000 0.000000 0.000000 -11.666522 0.561251 -21.393070 7.745165 -1.162263 18.385119 -6.586948 -17.221751 7.428634 0.000000 0.000000 0.000000 4.531323 -3.020394 41.676466 -5.066410 1.731638 -25.206635 -5.739078 7.202354 23.479439 16.584426 -2.165265 -48.348217 0.000000 0.000000 0.000000 -4.964577 -29.839984 10.861865 -39.221431 -43.153090 7.462823 69.000346 -66.883004 -45.351614 0.000000 0.000000 0.000000 17.203835 15.038075 8.372623 55.290809 51.107698 18.738783 -42.175517 64.434859 -20.542777 0.000000 0.000000 0.000000 
-0.084526 0.903661 0.214481 0.497267 -3.437655 4.058758 9.239009 -0.223789 -20.735363 -7.179125 1.503899 17.229836 6.258279 13.686560 5.108269 0.000000 0.000000 0.000000 -11.669479 0.563566 -21.533468 7.914122 -1.208392 18.386748 -6.740972 -17.547889 7.651284 0.000000 0.000000 0.000000 4.529615 -3.040567 41.869042 -4.974599 1.709389 -25.214804 -5.881570 6.588825 23.284612 16.518186 -2.251066 -47.987277 0.000000 0.000000 0.000000 -4.812883 -29.900259 10.927826 -38.712405 -43.643977 7.545408 68.289294 -65.809044 -43.805321 0.000000 0.000000 0.000000 18.141683 15.318085 8.539136 55.712342 50.400481 18.435568 -41.337025 65.998399 -20.742915 0.000000 0.000000 0.000000 
-0.084974 0.903566 0.214489 0.481968 -3.540962 4.103627 9.291991 -0.209731 -20.819738 -7.305762 1.543704 17.210542 6.259896 13.691814 5.170355 0.000000 0.000000 0.000000 -11.702752 0.568680 -21.726772 8.048365 -1.242391 18.607775 -6.785141 -17.656251 7.790776 0.000000 0.000000 0.000000 4.435186 -3.005375 42.167134 -4.856862 1.680248 -25.262010 -5.934030 6.301149 23.189425 16.395746 -2.244518 -47.935027 0.000000 0.000000 0.000000 -4.632049 -29.949098 10.949766 -38.238377 -44.144930 7.603211 68.629900 -65.149197 -43.476180 0.000000 0.000000 0.000000 18.692101 15.214155 8.492229 56.225366 49.576137 18.132255 -41.412835 67.718418 -21.527730 0.000000 0.000000 0.000000 
-0.085409 0.903610 0.214643 0.420009 -3.668488 4.217444 9.295100 -0.203987 -20.946189 -7.328977 1.561744 17.304133 6.424107 13.977078 5.075573 0.000000 0.000000 0.000000 -11.730455 0.577985 -21.882176 8.266251 -1.295628 18.756919 -6.896481 -17.881929 7.732571 0.000000 0.000000 0.000000 4.313198 -2.955872 42.469047 -4.799482 1.662816 -25.365730 -6.013012 6.110886 23.126131 16.391088 -2.298909 -47.722037 0.000000 0.000000 0.000000 -4.310585 -29.951939 10.916844 -37.273811 -44.379871 7.404249 69.450474 -64.554234 -43.613774 0.000000 0.000000 0.000000 19.134655 15.209764 8.502529 56.025613 49.122970 17.733462 -42.217591 68.572194 -22.487560 0.000000 0.000000 0.000000 
-0.085840 0.903463 0.214954 0.412504 -3.611545 4.206678 9.305826 -0.204832 -21.067804 -7.453316 1.602735 17.505429 6.463865 14.038908 4.937901 0.000000 0.000000 0.000000 -11.772073 0.568907 -21.991832 8.390734 -1.337743 18.986309 -7.013718 -18.117329 7.849803 0.000000 0.000000 0.000000 4.255210 -2.959671 42.739135 -4.794228 1.662273 -25.326104 -5.986099 5.963226 23.044447 16.290457 -2.293293 -47.638676 0.000000 0.000000 0.000000 -4.527222 -30.014455 10.997803 -36.223536 -44.404971 7.102338 70.653563 -64.457845 -44.462481 0.000000 0.000000 0.000000 19.345925 15.301370 8.554067 55.169141 48.815421 17.143373 -42.439078 68.630863 -22.738031 0.000000 0.000000 0.000000 
-0.086246 0.903387 0.215446 0.449641 -3.543068 4.240464 9.212648 -0.225893 -21.150578 -7.365564 1.580875 17.643251 6.512365 14.118777 4.808425 0.000000 0.000000 0.000000 -11.808746 0.559018 -21.901192 8.309258 -1.318333 18.896068 -7.048566 -18.174720 7.769131 0.000000 0.000000 0.000000 4.249823 -2.980484 42.915806 -4.864397 1.677635 -25.387986 -6.028915 6.043013 23.145695 16.254831 -2.312158 -47.448376 0.000000 0.000000 0.000000 -4.559345 -30.021390 10.995606 -35.205130 -44.255033 6.722528 72.222982 -64.371509 -45.669636 0.000000 0.000000 0.000000 19.163766 15.236630 8.524375 54.572308 48.812508 16.867979 -43.723659 68.211751 -23.421683 0.000000 0.000000 0.000000 
-0.086588 0.903112 0.216064 0.485737 -3.435915 4.201652 9.188696 -0.236136 -21.040661 -7.377526 1.574056 17.561856 6.585297 14.253924 4.778768 0.000000 0.000000 0.000000 -11.945178 0.530024 -21.778734 8.334749 -1.330885 18.852975 -7.069634 -18.219139 7.947856 0.000000 0.000000 0.000000 4.215930 -2.990845 43.014599 -4.880279 1.684361 -25.279434 -6.103739 6.159027 23.044084 16.365056 -2.351392 -47.347735 0.000000 0.000000 0.000000 -4.708009 -29.786671 10.913424 -34.343588 -43.730477 6.293223 74.381865 -64.500766 -47.563799 0.000000 0.000000 0.000000 19.050010 15.101689 8.474810 53.625245 48.827799 16.466471 -45.121158 67.496101 -24.058411 0.000000 0.000000 0.000000 
-0.086844 0.902830 0.216620 0.555976 -3.273255 4.140634 9.190116 -0.243815 -21.112544 -7.479603 1.603443 17.773413 6.527574 14.157718 4.816019 0.000000 0.000000 0.000000 -11.990110 0.508835 -21.472056 8.183406 -1.296557 18.684734 -7.008972 -18.083404 7.914115 0.000000 0.000000 0.000000 4.287392 -3.055877 43.169338 -5.002906 1.717570 -25.238950 -6.271055 6.405821 23.017273 16.605106 -2.392825 -47.417162 0.000000 0.000000 0.000000 -4.843915 -29.901837 10.943864 -33.199890 -43.438835 5.851079 75.947262 -64.168033 -48.682263 0.000000 0.000000 0.000000 18.669348 15.078006 8.484379 52.367101 49.149150 16.116071 -47.538952 66.476568 -25.197310 0.000000 0.000000 0.000000 
